{"asset":{"generator":"glTF-Transform v4.0.2","version":"2.0"},"accessors":[{"type":"SCALAR","componentType":5126,"count":2,"max":[1.6666666269302368],"min":[0],"bufferView":0,"byteOffset":0},{"type":"VEC3","componentType":5126,"count":2,"bufferView":0,"byteOffset":8},{"type":"SCALAR","componentType":5126,"count":41,"max":[1.6666666269302368],"min":[0],"bufferView":0,"byteOffset":32},{"type":"VEC4","componentType":5126,"count":41,"bufferView":0,"byteOffset":196},{"type":"SCALAR","componentType":5126,"count":37,"max":[1.6666666269302368],"min":[0],"bufferView":0,"byteOffset":852},{"type":"VEC3","componentType":5126,"count":37,"bufferView":0,"byteOffset":1000},{"type":"VEC3","componentType":5126,"count":37,"bufferView":0,"byteOffset":1444},{"type":"VEC3","componentType":5126,"count":37,"bufferView":0,"byteOffset":1888},{"type":"VEC3","componentType":5126,"count":37,"bufferView":0,"byteOffset":2332},{"type":"SCALAR","componentType":5125,"count":6173592,"bufferView":1,"byteOffset":0},{"type":"SCALAR","componentType":5123,"count":9402,"bufferView":1,"byteOffset":24694368},{"type":"SCALAR","componentType":5123,"count":108,"bufferView":1,"byteOffset":24713172},{"type":"SCALAR","componentType":5123,"count":6,"bufferView":1,"byteOffset":24713388},{"type":"SCALAR","componentType":5123,"count":24,"bufferView":1,"byteOffset":24713400},{"type":"SCALAR","componentType":5123,"count":8238,"bufferView":1,"byteOffset":24713448},{"type":"SCALAR","componentType":5123,"count":780,"bufferView":1,"byteOffset":24729924},{"type":"SCALAR","componentType":5123,"count":60,"bufferView":1,"byteOffset":24731484},{"type":"SCALAR","componentType":5123,"count":14058,"bufferView":1,"byteOffset":24731604},{"type":"SCALAR","componentType":5123,"count":42,"bufferView":1,"byteOffset":24759720},{"type":"SCALAR","componentType":5123,"count":144,"bufferView":1,"byteOffset":24759804},{"type":"SCALAR","componentType":5123,"count":126,"bufferView":1,"byteOffset":24760092},{"type":"VEC3","componentType":5126,"count":2695827,"max":[4.9719953536987305,5.930640697479248,11.437339782714844],"min":[-10.643778800964355,-2.2965917587280273,-4.671468257904053],"bufferView":2,"byteOffset":0},{"type":"VEC3","componentType":5126,"count":2695827,"bufferView":2,"byteOffset":12},{"type":"VEC2","componentType":5126,"count":2695827,"bufferView":2,"byteOffset":24},{"type":"VEC3","componentType":5126,"count":5004,"max":[8.634263038635254,43.068660736083984,999.01318359375],"min":[-2.427278995513916,-3.042783260345459,-1885.4952392578125],"bufferView":3,"byteOffset":0},{"type":"VEC2","componentType":5126,"count":5004,"bufferView":3,"byteOffset":12},{"type":"VEC3","componentType":5126,"count":5004,"bufferView":3,"byteOffset":20},{"type":"VEC3","componentType":5126,"count":36,"max":[1.617593765258789,56.79157638549805,1.6155648231506348],"min":[-1.6123127937316895,46.61148452758789,-1.6143417358398438],"bufferView":4,"byteOffset":0},{"type":"VEC3","componentType":5126,"count":36,"bufferView":4,"byteOffset":12},{"type":"VEC2","componentType":5126,"count":36,"bufferView":4,"byteOffset":24},{"type":"VEC3","componentType":5126,"count":4,"max":[0.35024601221084595,0.3796156942844391,0.20085178315639496],"min":[-0.35024601221084595,-0.3796156942844391,0.20085178315639496],"bufferView":5,"byteOffset":0},{"type":"VEC3","componentType":5126,"count":4,"bufferView":5,"byteOffset":12},{"type":"VEC2","componentType":5126,"count":4,"bufferView":5,"byteOffset":24},{"type":"VEC3","componentType":5126,"count":8,"max":[0.4444006085395813,0.17922481894493103,0.15341554582118988],"min":[0.4444006085395813,-0.3791349530220032,-0.15341554582118988],"bufferView":6,"byteOffset":0},{"type":"VEC3","componentType":5126,"count":8,"bufferView":6,"byteOffset":12},{"type":"VEC2","componentType":5126,"count":8,"bufferView":6,"byteOffset":24},{"type":"VEC3","componentType":5126,"count":4954,"max":[128.17047119140625,1311.1373291015625,348.838134765625],"min":[-1.4366275072097778,-1,-2753.7666015625],"bufferView":7,"byteOffset":0},{"type":"VEC3","componentType":5126,"count":4954,"bufferView":7,"byteOffset":12},{"type":"VEC2","componentType":5126,"count":4954,"bufferView":7,"byteOffset":24},{"type":"VEC3","componentType":5126,"count":408,"max":[4.776401042938232,0.4161335229873657,0.7661946415901184],"min":[-0.3477976620197296,-0.7368319630622864,-0.7511683106422424],"bufferView":8,"byteOffset":0},{"type":"VEC3","componentType":5126,"count":408,"bufferView":8,"byteOffset":12},{"type":"VEC2","componentType":5126,"count":408,"bufferView":8,"byteOffset":24},{"type":"VEC3","componentType":5126,"count":42,"max":[1,1,0.4020519256591797],"min":[-2.9970579147338867,-1.0024272203445435,-1.5979480743408203],"bufferView":9,"byteOffset":0},{"type":"VEC3","componentType":5126,"count":42,"bufferView":9,"byteOffset":12},{"type":"VEC2","componentType":5126,"count":42,"bufferView":9,"byteOffset":24},{"type":"VEC3","componentType":5126,"count":42,"max":[0.977738082408905,1.7286865711212158,0.9781922101974487],"min":[-3.019319772720337,-0.2737407088279724,-1.0218077898025513],"bufferView":10,"byteOffset":0},{"type":"VEC2","componentType":5126,"count":42,"bufferView":10,"byteOffset":12},{"type":"VEC2","componentType":5126,"count":42,"bufferView":11,"byteOffset":0},{"type":"VEC2","componentType":5126,"count":42,"bufferView":12,"byteOffset":0},{"type":"VEC3","componentType":5126,"count":3332,"max":[3.7251780033111572,602.5343627929688,1],"min":[-26.00124168395996,-127.72490692138672,-14.432515144348145],"bufferView":13,"byteOffset":0},{"type":"VEC3","componentType":5126,"count":3332,"bufferView":13,"byteOffset":12},{"type":"VEC2","componentType":5126,"count":3332,"bufferView":13,"byteOffset":24},{"type":"VEC3","componentType":5126,"count":28,"max":[-0.8092370629310608,600.1992797851562,1],"min":[-25.973220825195312,-42.04296875,-14.423290252685547],"bufferView":14,"byteOffset":0},{"type":"VEC3","componentType":5126,"count":28,"bufferView":14,"byteOffset":12},{"type":"VEC2","componentType":5126,"count":28,"bufferView":14,"byteOffset":24},{"type":"VEC3","componentType":5126,"count":96,"max":[9.217093467712402,-0.95390784740448,7.1748046875],"min":[-5.106594562530518,-1.0360584259033203,-5.104973316192627],"bufferView":15,"byteOffset":0},{"type":"VEC3","componentType":5126,"count":96,"bufferView":15,"byteOffset":12},{"type":"VEC2","componentType":5126,"count":96,"bufferView":15,"byteOffset":24},{"type":"VEC3","componentType":5126,"count":84,"max":[11.273472785949707,0.33308565616607666,7.50889253616333],"min":[-1,-1.0360584259033203,-1],"bufferView":16,"byteOffset":0},{"type":"VEC3","componentType":5126,"count":84,"bufferView":16,"byteOffset":12},{"type":"VEC2","componentType":5126,"count":84,"bufferView":16,"byteOffset":24}],"bufferViews":[{"buffer":0,"byteOffset":0,"byteLength":2776},{"buffer":0,"byteOffset":2776,"byteLength":24760344,"target":34963},{"buffer":0,"byteOffset":24763120,"byteLength":86266464,"byteStride":32,"target":34962},{"buffer":0,"byteOffset":111029584,"byteLength":160128,"byteStride":32,"target":34962},{"buffer":0,"byteOffset":111189712,"byteLength":1152,"byteStride":32,"target":34962},{"buffer":0,"byteOffset":111190864,"byteLength":128,"byteStride":32,"target":34962},{"buffer":0,"byteOffset":111190992,"byteLength":256,"byteStride":32,"target":34962},{"buffer":0,"byteOffset":111191248,"byteLength":158528,"byteStride":32,"target":34962},{"buffer":0,"byteOffset":111349776,"byteLength":13056,"byteStride":32,"target":34962},{"buffer":0,"byteOffset":111362832,"byteLength":1344,"byteStride":32,"target":34962},{"buffer":0,"byteOffset":111364176,"byteLength":840,"byteStride":20,"target":34962},{"buffer":0,"byteOffset":111365016,"byteLength":336,"byteStride":8,"target":34962},{"buffer":0,"byteOffset":111365352,"byteLength":336,"byteStride":8,"target":34962},{"buffer":0,"byteOffset":111365688,"byteLength":106624,"byteStride":32,"target":34962},{"buffer":0,"byteOffset":111472312,"byteLength":896,"byteStride":32,"target":34962},{"buffer":0,"byteOffset":111473208,"byteLength":3072,"byteStride":32,"target":34962},{"buffer":0,"byteOffset":111476280,"byteLength":2688,"byteStride":32,"target":34962}],"samplers":[{"magFilter":9729,"minFilter":9987,"wrapS":10497,"wrapT":10497},{"magFilter":9728,"minFilter":9728,"wrapS":10497,"wrapT":10497}],"textures":[{"sampler":0,"extensions":{"EXT_texture_webp":{"source":1}}},{"sampler":0,"extensions":{"EXT_texture_webp":{"source":2}}},{"sampler":0,"extensions":{"EXT_texture_webp":{"source":0}}},{"sampler":0,"extensions":{"EXT_texture_webp":{"source":3}}},{"sampler":1,"extensions":{"EXT_texture_webp":{"source":4}}},{"sampler":1,"extensions":{"EXT_texture_webp":{"source":5}}},{"sampler":1,"extensions":{"EXT_texture_webp":{"source":6}}}],"images":[{"mimeType":"image/webp","uri":"metallicRoughness_1.webp"},{"mimeType":"image/webp","uri":"baseColor_1.webp"},{"mimeType":"image/webp","uri":"normal_1.webp"},{"mimeType":"image/webp","uri":"baseColor_2.webp"},{"name":"PaletteBaseColor","mimeType":"image/webp","uri":"PaletteBaseColor.webp"},{"name":"PaletteEmissive","mimeType":"image/webp","uri":"PaletteEmissive.webp"},{"name":"PaletteMetallicRoughness","mimeType":"image/webp","uri":"PaletteMetallicRoughness.webp"}],"buffers":[{"uri":"NavigationTower.bin","byteLength":111478968}],"materials":[{"name":"Dark Wood","doubleSided":true,"pbrMetallicRoughness":{"metallicFactor":0,"baseColorTexture":{"index":0},"metallicRoughnessTexture":{"index":2}},"normalTexture":{"index":1,"scale":10}},{"name":"Material.015","doubleSided":true,"pbrMetallicRoughness":{"roughnessFactor":0.5,"metallicFactor":0,"baseColorTexture":{"index":3}}},{"name":"PaletteMaterial001","doubleSided":true,"pbrMetallicRoughness":{"baseColorTexture":{"index":4},"metallicRoughnessTexture":{"index":6}},"emissiveFactor":[1,1,1],"emissiveTexture":{"index":5}},{"name":"PaletteMaterial002","doubleSided":true,"pbrMetallicRoughness":{"baseColorTexture":{"index":4},"metallicRoughnessTexture":{"index":6}},"emissiveFactor":[1,1,1],"emissiveTexture":{"index":5},"extensions":{"KHR_materials_emissive_strength":{"emissiveStrength":100}}},{"name":"PaletteMaterial003","doubleSided":true,"pbrMetallicRoughness":{"baseColorTexture":{"index":4},"metallicRoughnessTexture":{"index":6}},"emissiveFactor":[1,1,1],"emissiveTexture":{"index":5},"extensions":{"KHR_materials_emissive_strength":{"emissiveStrength":2}}},{"name":"PaletteMaterial004","doubleSided":true,"pbrMetallicRoughness":{"baseColorTexture":{"index":4},"metallicRoughnessTexture":{"index":6}},"emissiveFactor":[1,1,1],"emissiveTexture":{"index":5},"extensions":{"KHR_materials_emissive_strength":{"emissiveStrength":1.0001689195632935}}},{"name":"PaletteMaterial005","doubleSided":true,"pbrMetallicRoughness":{"baseColorTexture":{"index":4},"metallicRoughnessTexture":{"index":6}},"emissiveFactor":[1,1,1],"emissiveTexture":{"index":5},"extensions":{"KHR_materials_emissive_strength":{"emissiveStrength":1.5085501670837402}}},{"name":"PaletteMaterial006","alphaMode":"BLEND","pbrMetallicRoughness":{"baseColorTexture":{"index":4},"metallicRoughnessTexture":{"index":6}},"emissiveFactor":[1,1,1],"emissiveTexture":{"index":5}},{"name":"PaletteMaterial007","doubleSided":true,"pbrMetallicRoughness":{"baseColorTexture":{"index":4},"metallicRoughnessTexture":{"index":6}},"emissiveFactor":[1,1,1],"emissiveTexture":{"index":5},"extensions":{"KHR_materials_emissive_strength":{"emissiveStrength":3.0005067586898804}}},{"name":"PaletteMaterial008","pbrMetallicRoughness":{"baseColorTexture":{"index":4},"metallicRoughnessTexture":{"index":6}},"emissiveFactor":[1,1,1],"emissiveTexture":{"index":5}}],"meshes":[{"primitives":[{"attributes":{"POSITION":21,"NORMAL":22,"TEXCOORD_0":23},"mode":4,"material":2,"indices":9}]},{"primitives":[{"attributes":{"POSITION":24,"TEXCOORD_0":25,"NORMAL":26},"mode":4,"material":0,"indices":10}]},{"primitives":[{"attributes":{"POSITION":27,"NORMAL":28,"TEXCOORD_0":29},"mode":4,"material":4,"indices":11}]},{"primitives":[{"attributes":{"POSITION":30,"NORMAL":31,"TEXCOORD_0":32},"mode":4,"material":7,"indices":12}]},{"primitives":[{"attributes":{"POSITION":33,"NORMAL":34,"TEXCOORD_0":35},"mode":4,"material":8,"indices":13}]},{"primitives":[{"attributes":{"POSITION":36,"NORMAL":37,"TEXCOORD_0":38},"mode":4,"material":9,"indices":14}]},{"primitives":[{"attributes":{"POSITION":39,"NORMAL":40,"TEXCOORD_0":41},"mode":4,"material":2,"indices":15}]},{"primitives":[{"attributes":{"POSITION":42,"NORMAL":43,"TEXCOORD_0":44},"mode":4,"material":2,"indices":16}]},{"primitives":[{"attributes":{"POSITION":45,"TEXCOORD_0":46,"NORMAL":43},"mode":4,"material":2,"indices":16}]},{"primitives":[{"attributes":{"TEXCOORD_0":47,"POSITION":42,"NORMAL":43},"mode":4,"material":2,"indices":16}]},{"primitives":[{"attributes":{"TEXCOORD_0":48,"POSITION":42,"NORMAL":43},"mode":4,"material":2,"indices":16}]},{"primitives":[{"attributes":{"POSITION":49,"NORMAL":50,"TEXCOORD_0":51},"mode":4,"material":1,"indices":17}]},{"primitives":[{"attributes":{"POSITION":52,"NORMAL":53,"TEXCOORD_0":54},"mode":4,"material":3,"indices":18}]},{"primitives":[{"attributes":{"POSITION":55,"NORMAL":56,"TEXCOORD_0":57},"mode":4,"material":5,"indices":19}]},{"primitives":[{"attributes":{"POSITION":58,"NORMAL":59,"TEXCOORD_0":60},"mode":4,"material":6,"indices":20}]}],"cameras":[{"name":"PerspectiveCamera","type":"perspective","perspective":{"znear":0.10000000149011612,"zfar":100,"yfov":0.39959652046304894,"aspectRatio":1.7861205915813425}},{"name":"PerspectiveCamera","type":"perspective","perspective":{"znear":0.10000000149011612,"zfar":100,"yfov":0.39959652046304894,"aspectRatio":1.7861205915813425}},{"name":"PerspectiveCamera","type":"perspective","perspective":{"znear":0.10000000149011612,"zfar":100,"yfov":0.39959652046304894,"aspectRatio":1.7861205915813425}},{"name":"PerspectiveCamera","type":"perspective","perspective":{"znear":0.10000000149011612,"zfar":100,"yfov":0.39959652046304894,"aspectRatio":1.7861205915813425}},{"name":"PerspectiveCamera","type":"perspective","perspective":{"znear":0.10000000149011612,"zfar":1000,"yfov":0.39959652046304894,"aspectRatio":1.7861205915813425}}],"nodes":[{"name":"Tower1ViewCamera","extras":{"name":"Tower1ViewCamera"},"translation":[7.821081161499023,7.375052452087402,6.857782363891602],"rotation":[-0.17537954836923414,0.3867048652976145,0.07516809172196358,0.9022478165346303],"camera":0},{"name":"Tower2ViewCamera","extras":{"name":"Tower2ViewCamera"},"translation":[8.780599594116211,11.613851547241211,1.6495134830474854],"rotation":[-0.18340772607858444,0.4015510417658655,0.08242694427141808,0.8934898802904317],"camera":1},{"name":"Tower3ViewCamera","extras":{"name":"Tower3ViewCamera"},"translation":[4.603140830993652,15.834668159484863,2.813048839569092],"rotation":[-0.18369434834324244,0.3984298120346526,0.08178624548683534,0.8948860717659682],"camera":2},{"name":"Tower4ViewCamera","extras":{"name":"Tower4ViewCamera"},"translation":[4.766629695892334,19.997020721435547,-2.353847026824951],"rotation":[-0.1743129686179192,0.3992645225636274,0.07760957913559026,0.8967606057848118],"camera":3},{"name":"Tower0ViewCamera","extras":{"name":"Tower0ViewCamera"},"translation":[36.074607849121094,34.15834045410156,29.399221420288086],"rotation":[-0.20582007850571715,0.3932026776809383,0.09077790237973345,0.8915094638946367],"camera":4},{"name":"DarkCube1","extras":{"name":"DarkCube1"},"translation":[-1.377431869506836,4.574522972106934,-11.337495803833008],"scale":[1,1.9125995635986328,1],"mesh":0},{"name":"BlueTowerLight","extras":{"name":"BlueTowerLight"},"translation":[-6.201686859130859,6.647854804992676,-8.473846435546875],"rotation":[0.04091866463707735,0.8840374718878409,0.442790347089141,-0.144014303671403],"extensions":{"KHR_lights_punctual":{"light":0}}},{"name":"LowerLight3","extras":{"name":"LowerLight3"},"translation":[-2.831392765045166,6.386844158172607,-0.31466174125671387],"rotation":[-0.284166277662756,0.7269423087308975,0.34203393565368606,0.5232754697881873],"extensions":{"KHR_lights_punctual":{"light":1}}},{"name":"LowerLight2","extras":{"name":"LowerLight2"},"translation":[5.962527751922607,4.22230339050293,-4.625493049621582],"rotation":[-0.284166277662756,0.7269423087308975,0.34203393565368606,0.5232754697881873],"extensions":{"KHR_lights_punctual":{"light":2}}},{"name":"HighLight4","extras":{"name":"HighLight4"},"translation":[-4.582026958465576,13.102387428283691,-4.985935688018799],"rotation":[-0.284166277662756,0.7269423087308975,0.34203393565368606,0.5232754697881873],"extensions":{"KHR_lights_punctual":{"light":3}}},{"name":"HighLight5","extras":{"name":"HighLight5"},"translation":[-4.469593048095703,16.364072799682617,-10.29674243927002],"rotation":[-0.284166277662756,0.7269423087308975,0.34203393565368606,0.5232754697881873],"extensions":{"KHR_lights_punctual":{"light":4}}},{"name":"LowerLight1","extras":{"name":"LowerLight1"},"translation":[4.605123519897461,-0.7602939605712891,-0.6163000464439392],"rotation":[-0.284166277662756,0.7269423087308975,0.34203393565368606,0.5232754697881873],"extensions":{"KHR_lights_punctual":{"light":5}}},{"name":"GreenTowerLight","extras":{"name":"GreenTowerLight"},"translation":[-6.663388729095459,9.3744478225708,-12.616742134094238],"rotation":[-0.284166277662756,0.7269423087308975,0.34203393565368606,0.5232754697881873],"extensions":{"KHR_lights_punctual":{"light":6}}},{"name":"GreenTowerLight001","extras":{"name":"GreenTowerLight.001"},"translation":[-6.460005283355713,8.102446556091309,-12.907869338989258],"rotation":[-0.284166277662756,0.7269423087308975,0.34203393565368606,0.5232754697881873],"extensions":{"KHR_lights_punctual":{"light":7}}},{"name":"GreenTowerLight002","extras":{"name":"GreenTowerLight.002"},"translation":[-6.491372108459473,9.389482498168945,-13.704059600830078],"rotation":[-0.284166277662756,0.7269423087308975,0.34203393565368606,0.5232754697881873],"extensions":{"KHR_lights_punctual":{"light":8}}},{"name":"Cube004","extras":{"name":"Cube.004"},"translation":[-2.840738296508789,0.8781384229660034,-2.1044092178344727],"rotation":[0,0.7071068286895689,0,0.7071067336835231],"scale":[0.9295058903254197,0.22826460003852844,0.0036713101711569854],"mesh":1},{"name":"Cube026_1","translation":[-4.118206024169922,6.746621608734131,-6.023292064666748],"scale":[0.2162363976240158,0.014021751470863819,0.6568270325660706],"mesh":11},{"name":"Cube026_2","translation":[-4.118206024169922,6.746621608734131,-6.023292064666748],"scale":[0.2162363976240158,0.014021751470863819,0.6568270325660706],"mesh":12},{"name":"Point","extras":{"name":"Point","ant_landscape":{}},"translation":[-3.8053054809570312,5.59956169128418,-9.527179718017578],"rotation":[-0.7071068286895689,0,0,0.7071067336835231],"scale":[0.24435973167419434,0.24435974960492743,0.24435974960492743],"extensions":{"KHR_lights_punctual":{"light":9}}},{"name":"Cube123_1","translation":[-3.798698663711548,4.07273530960083,-9.588011741638184],"scale":[0.2098046988248825,0.03072557970881462,0.2098046988248825],"mesh":2},{"name":"Cube008","extras":{"name":"Cube.008"},"translation":[-2.671877384185791,4.392814636230469,-7.754897594451904],"scale":[0.3754865825176239,0.3753952383995056,0.3753952383995056],"mesh":13},{"name":"Cube023","extras":{"name":"Cube.023"},"translation":[-4.21384859085083,4.392814636230469,-8.523866653442383],"scale":[0.3754865825176239,0.3753952383995056,0.3753952383995056],"mesh":14},{"name":"Cube010_2","translation":[-3.6163113117218018,4.353904724121094,-5.738923072814941],"scale":[0.7348533272743225,0.7348533272743225,0.7348533272743225],"mesh":3},{"name":"Cube010_4","translation":[-3.6163113117218018,4.353904724121094,-5.738923072814941],"scale":[0.7348533272743225,0.7348533272743225,0.7348533272743225],"mesh":4},{"name":"Guitar","extras":{"name":"Guitar"},"translation":[-2.683619260787964,4.849729061126709,-9.403106689453125],"rotation":[0.2803294689390076,0.7060361516056668,0.1331902884506016,0.6365443361528811],"scale":[0.028910275959378364,0.0025557314579131435,0.0028314968089377737],"mesh":5},{"name":"Cube051","extras":{"name":"Cube.051"},"translation":[-9.046673774719238,9.674057960510254,-5.973770618438721],"rotation":[0.05504129081964493,0.046810783445835114,-0.7097405195236206,0.7007479667663574],"scale":[0.18382930755615234,0.18382930755615234,0.18382929265499115],"mesh":6},{"name":"Spot001","extras":{"name":"Spot.001"},"translation":[-5.595303058624268,9.292454719543457,-9.542603492736816],"rotation":[-0.7071068286895689,0,0,0.7071067336835231],"scale":[0.725195586681366,0.7251956245131693,0.7251956245131693],"extensions":{"KHR_lights_punctual":{"light":10}}},{"name":"ArrowGoBack","extras":{"name":"ArrowGoBack"},"translation":[-1.9556758403778076,0.7057330012321472,0.3739057779312134],"rotation":[-0.7072871327400208,0.023889318108558655,0.7062305808067322,0.02031194046139717],"scale":[0.28217747807502747,0.03910740092396736,0.2821773290634155],"mesh":7},{"name":"ArrowMusic","extras":{"name":"ArrowMusic"},"translation":[-1.4542264938354492,5.469616889953613,-9.669747352600098],"rotation":[0.5200676918029785,-0.4406016767024994,0.6374143362045288,0.3593088388442993],"scale":[0.25185245275497437,0.0349046066403389,0.2518523037433624],"mesh":8},{"name":"ArrowBooks","extras":{"name":"ArrowBooks"},"translation":[-9.110724449157715,9.143343925476074,-7.4154791831970215],"rotation":[-0.8884307742118835,0.0026045874692499638,0.00041657817200757563,0.4590030610561371],"scale":[0.30475711822509766,0.04223673790693283,0.3047569692134857],"mesh":9},{"name":"ArrowMerch","extras":{"name":"ArrowMerch"},"translation":[-3.956071376800537,12.23010540008545,-13.523836135864258],"rotation":[0.002120839199051261,-0.3985145092010498,0.9171573519706726,0.0020178467966616154],"scale":[0.29744452238082886,0.041223280131816864,0.2974443733692169],"mesh":10},{"name":"NavigationTower.glb","children":[25,27,28,29,30]}],"animations":[{"name":"Cube.051Action.001","samplers":[{"input":0,"output":1,"interpolation":"STEP"},{"input":2,"output":3,"interpolation":"LINEAR"}],"channels":[{"sampler":0,"target":{"node":25,"path":"translation"}},{"sampler":1,"target":{"node":25,"path":"rotation"}}]},{"name":"ArrowGoBackAction","samplers":[{"input":4,"output":5,"interpolation":"LINEAR"}],"channels":[{"sampler":0,"target":{"node":27,"path":"translation"}}]},{"name":"ArrowMusicAction.001","samplers":[{"input":4,"output":6,"interpolation":"LINEAR"}],"channels":[{"sampler":0,"target":{"node":28,"path":"translation"}}]},{"name":"ArrowBooksAction","samplers":[{"input":4,"output":7,"interpolation":"LINEAR"}],"channels":[{"sampler":0,"target":{"node":29,"path":"translation"}}]},{"name":"ArrowMerchAction","samplers":[{"input":4,"output":8,"interpolation":"LINEAR"}],"channels":[{"sampler":0,"target":{"node":30,"path":"translation"}}]}],"scenes":[{"name":"Scene","nodes":[31,0,1,2,3,4,5,6,7,8,9,10,11,12,13,14,15,16,17,18,19,20,21,22,23,24,26]}],"scene":0,"extensionsUsed":["EXT_texture_webp","KHR_lights_punctual","KHR_materials_emissive_strength"],"extensionsRequired":["EXT_texture_webp"],"extensions":{"KHR_lights_punctual":{"lights":[{"type":"point","color":[0.02447158470749855,0.49889642000198364,1],"intensity":30,"name":"BlueTowerLight"},{"type":"point","intensity":50,"name":"LowerLight3"},{"type":"point","intensity":50,"name":"LowerLight2"},{"type":"point","intensity":50,"name":"HighLight4"},{"type":"point","intensity":50,"name":"HighLight5"},{"type":"point","intensity":50,"name":"LowerLight1"},{"type":"point","color":[0.08565232902765274,1,0.07497033476829529],"intensity":5,"name":"GreenTowerLight"},{"type":"point","color":[0.08565232902765274,1,0.07497033476829529],"intensity":10,"name":"GreenTowerLight001"},{"type":"point","color":[0.08565232902765274,1,0.07497033476829529],"intensity":5,"name":"GreenTowerLight002"},{"type":"point","color":[0.8784872889518738,0.6064496040344238,1],"intensity":5,"name":"Point"},{"type":"spot","intensity":3,"name":"Spot001","spot":{"innerConeAngle":0.3337942263919169,"outerConeAngle":0.39269909262657166}}]}}}